<svg width="500" height="500" viewBox="0 0 500 500" fill="none" xmlns="http://www.w3.org/2000/svg">
<path d="M77 314.77C77 303.303 80.1271 294.166 86.3812 287.357C93.0032 280.549 101.465 277.144 111.766 277.144H192.885C203.554 277.144 212.015 280.549 218.27 287.357C224.524 294.166 227.651 303.303 227.651 314.77V338.959C227.651 347.2 228.57 352.576 230.41 355.084C232.249 357.592 235.744 359.026 240.895 359.384H249.172C255.058 359.384 258.737 358.13 260.209 355.622C261.68 352.755 262.416 347.2 262.416 338.959V47.626C262.416 36.159 265.543 27.0213 271.797 20.2128C278.052 13.4043 286.513 10 297.182 10H388.234C398.903 10 407.365 13.4043 413.619 20.2128C419.873 27.0213 423 36.159 423 47.626V374.972C423 412.956 413.251 441.624 393.753 460.974C374.255 480.325 347.399 490 313.185 490H186.815C152.601 490 125.745 480.325 106.247 460.974C86.7491 441.624 77 412.956 77 374.972V314.77Z" fill="black"/>
</svg>
