<svg width="500" height="500" viewBox="0 0 500 500" fill="none" xmlns="http://www.w3.org/2000/svg">
<path d="M426 452.162C426 463.694 422.741 472.883 416.222 479.73C410.066 486.577 401.918 490 391.778 490H334.198C324.058 490 314.642 486.757 305.951 480.27C297.259 473.784 290.922 465.315 286.938 454.865L215.778 261.351H211.432V452.162C211.432 463.694 208.354 472.883 202.198 479.73C196.041 486.577 187.712 490 177.21 490H108.222C97.7202 490 89.3909 486.577 83.2346 479.73C77.0782 472.883 74 463.694 74 452.162V47.8378C74 36.3063 77.0782 27.1171 83.2346 20.2703C89.3909 13.4234 97.7202 10 108.222 10H165.259C175.761 10 185.177 13.2432 193.506 19.7297C202.198 26.2162 208.535 34.6847 212.519 45.1351L284.222 238.649H288.025V47.8378C288.025 36.3063 291.103 27.1171 297.259 20.2703C303.416 13.4234 311.745 10 322.247 10H391.778C401.918 10 410.066 13.4234 416.222 20.2703C422.741 27.1171 426 36.3063 426 47.8378V452.162Z" fill="black"/>
</svg>
