<svg width="500" height="500" viewBox="0 0 500 500" fill="none" xmlns="http://www.w3.org/2000/svg">
<path d="M74 358.508C74 347.105 77.0546 338.018 83.1639 331.247C89.2731 324.477 97.5385 321.091 107.96 321.091H187.201C195.466 321.091 202.294 323.942 207.685 329.644C213.434 335.345 218.466 344.967 222.778 358.508C225.294 365.991 230.684 370.089 238.949 370.802H261.051C267.879 370.802 272.55 368.664 275.066 364.388C277.941 359.755 279.378 353.341 279.378 345.145V344.61C279.378 338.909 277.941 333.564 275.066 328.575C272.191 323.586 267.879 320.022 262.129 317.884L134.374 264.967C116.046 257.84 101.312 246.437 90.1715 230.757C79.3905 215.078 74 194.944 74 170.356V124.388C74 86.6147 83.5232 58.1069 102.57 38.8642C121.616 19.6214 147.85 10 181.271 10H318.729C352.509 10 378.743 19.6214 397.43 38.8642C416.477 58.1069 426 86.6147 426 124.388V146.837C426 158.241 422.945 167.327 416.836 174.098C410.727 180.869 402.461 184.254 392.04 184.254H313.338C293.573 184.254 282.074 171.782 278.839 146.837C277.042 135.078 271.113 129.198 261.051 129.198H238.949C232.481 129.198 227.809 131.514 224.934 136.147C222.419 140.423 221.161 146.659 221.161 154.855V155.39C221.161 172.851 227.809 183.898 241.106 188.53L365.626 235.033C375.329 238.597 383.774 243.586 390.962 250C398.508 256.058 404.797 263.007 409.829 270.846C415.219 278.686 419.172 287.238 421.688 296.503C424.203 305.412 425.461 314.321 425.461 323.229L426 375.612C426 413.385 416.477 441.893 397.43 461.136C378.743 480.379 352.509 490 318.729 490H181.271C147.85 490 121.616 480.379 102.57 461.136C83.5232 441.893 74 413.385 74 375.612V358.508Z" fill="black"/>
</svg>
