<svg width="500" height="500" viewBox="0 0 500 500" fill="none" xmlns="http://www.w3.org/2000/svg">
<path d="M71 47.626C71 36.159 74.0369 27.0213 80.1108 20.2128C86.1846 13.4043 94.4022 10 104.763 10H190.512C200.873 10 208.734 13.4043 214.093 20.2128C219.452 27.0213 222.846 36.159 224.275 47.626C230.349 95.2856 233.386 145.274 233.386 197.592C233.744 249.91 229.992 303.841 222.132 359.384H273.581C280.369 303.124 283.763 249.91 283.763 199.742C283.763 149.574 280.369 98.869 273.581 47.626C272.152 36.159 274.831 27.0213 281.62 20.2128C288.408 13.4043 296.983 10 307.344 10H395.237C405.598 10 413.815 13.4043 419.889 20.2128C425.963 27.0213 429 36.159 429 47.626V374.972C429 412.956 419.532 441.624 400.596 460.974C382.017 480.325 355.935 490 322.35 490H177.65C144.065 490 117.804 480.325 98.8683 460.974C80.2894 441.624 71 412.956 71 374.972V47.626Z" fill="black"/>
</svg>
